<svg width="72" height="28" viewBox="0 0 72 28" fill="none" xmlns="http://www.w3.org/2000/svg">
<g clip-path="url(#clip0_6782_6965)">
<path d="M44.3359 27.8171V17.6141C44.3359 16.3069 44.6365 15.1104 45.2377 14.0249C45.8388 12.9392 46.7072 12.0751 47.8428 11.4326C48.9783 10.79 50.3477 10.4688 51.9507 10.4688C52.73 10.4688 53.5093 10.5795 54.2886 10.8011C55.0679 11.0005 55.7915 11.355 56.4595 11.8646C57.1275 12.352 57.6619 13.0167 58.0626 13.8587H58.0959C58.5413 13.0167 59.098 12.352 59.7659 11.8646C60.4339 11.355 61.1575 11.0005 61.9368 10.8011C62.7161 10.5795 63.5066 10.4688 64.3081 10.4688C65.8889 10.4688 67.2471 10.79 68.3827 11.4326C69.5181 12.0751 70.3866 12.9392 70.9877 14.0249C71.5889 15.1104 71.8894 16.3069 71.8894 17.6141V27.8171H68.8168V17.6141C68.8168 16.7722 68.6163 16.0078 68.2157 15.321C67.8148 14.6342 67.2693 14.0913 66.5791 13.6925C65.9111 13.2937 65.143 13.0943 64.2747 13.0943C63.4286 13.0943 62.6493 13.3048 61.9368 13.7257C61.2243 14.1245 60.6565 14.6674 60.2335 15.3542C59.8328 16.0189 59.6323 16.7722 59.6323 17.6141V27.8171H56.5597V17.6141C56.5597 16.7722 56.3482 16.0189 55.9252 15.3542C55.5244 14.6674 54.9677 14.1245 54.2552 13.7257C53.565 13.3048 52.7857 13.0943 51.9173 13.0943C51.0712 13.0943 50.3031 13.2937 49.6129 13.6925C48.9449 14.0913 48.4106 14.6342 48.0097 15.321C47.609 16.0078 47.4086 16.7722 47.4086 17.6141V27.8171H44.3359Z" fill="white"/>
<path d="M19.8193 27.8346V17.6318C19.8193 16.3244 20.1199 15.1281 20.7211 14.0424C21.3222 12.9568 22.1906 12.0926 23.3261 11.4501C24.4617 10.8076 25.8311 10.4863 27.4341 10.4863C28.2134 10.4863 28.9927 10.5971 29.772 10.8187C30.5513 11.0181 31.2749 11.3726 31.9429 11.8822C32.6108 12.3696 33.1453 13.0343 33.546 13.8762H33.5793C34.0247 13.0343 34.5813 12.3696 35.2493 11.8822C35.9173 11.3726 36.6409 11.0181 37.4202 10.8187C38.1995 10.5971 38.99 10.4863 39.7915 10.4863C41.3723 10.4863 42.7305 10.8076 43.866 11.4501C45.0015 12.0926 45.87 12.9568 46.4711 14.0424C47.0723 15.1281 47.3729 16.3244 47.3729 17.6318V27.8346H44.3002V17.6318C44.3002 16.7897 44.0998 16.0254 43.6991 15.3385C43.2982 14.6517 42.7527 14.1089 42.0625 13.7101C41.3945 13.3113 40.6264 13.1118 39.7581 13.1118C38.912 13.1118 38.1327 13.3223 37.4202 13.7434C36.7076 14.1421 36.1399 14.6849 35.7169 15.3717C35.3162 16.0365 35.1158 16.7897 35.1158 17.6318V27.8346H32.0431V17.6318C32.0431 16.7897 31.8316 16.0365 31.4086 15.3717C31.0078 14.6849 30.4511 14.1421 29.7386 13.7434C29.0484 13.3223 28.2691 13.1118 27.4007 13.1118C26.5546 13.1118 25.7865 13.3113 25.0963 13.7101C24.4283 14.1089 23.894 14.6517 23.4931 15.3385C23.0924 16.0254 22.892 16.7897 22.892 17.6318V27.8346H19.8193Z" fill="white"/>
<path d="M14.5283 28.0002V25.2633V11.2168H17.7847V25.2633V28.0002H14.5283Z" fill="white"/>
<path d="M6.17866 27.8765C4.90953 27.8765 3.80739 27.6106 2.87223 27.0789C1.95935 26.5249 1.24686 25.7826 0.734759 24.8522C0.24492 23.8994 0 22.8359 0 21.6616V11.3008H3.20622V22.0604C3.20622 22.9246 3.47341 23.6446 4.00778 24.2207C4.56441 24.7746 5.28804 25.0515 6.17866 25.0515H12.4575V27.8765H6.17866Z" fill="white"/>
<path fill-rule="evenodd" clip-rule="evenodd" d="M52.0175 7.47774C53.8619 7.47774 55.3573 5.98979 55.3573 4.15431C55.3573 2.31881 53.8619 0.83086 52.0175 0.83086C50.173 0.83086 48.6777 2.31881 48.6777 4.15431C48.6777 5.98979 50.173 7.47774 52.0175 7.47774ZM52.0175 8.3086C54.3232 8.3086 56.1923 6.44866 56.1923 4.15431C56.1923 1.85994 54.3232 0 52.0175 0C49.7119 0 47.8428 1.85994 47.8428 4.15431C47.8428 6.44866 49.7119 8.3086 52.0175 8.3086Z" fill="white"/>
<path d="M68.3827 4.15431C68.3827 6.44866 66.5136 8.3086 64.208 8.3086C61.9023 8.3086 60.0332 6.44866 60.0332 4.15431C60.0332 1.85994 61.9023 0 64.208 0C66.5136 0 68.3827 1.85994 68.3827 4.15431Z" fill="white"/>
<path fill-rule="evenodd" clip-rule="evenodd" d="M64.208 7.47774C66.0525 7.47774 67.5478 5.98979 67.5478 4.15431C67.5478 2.31881 66.0525 0.83086 64.208 0.83086C62.3635 0.83086 60.8682 2.31881 60.8682 4.15431C60.8682 5.98979 62.3635 7.47774 64.208 7.47774ZM64.208 8.3086C66.5136 8.3086 68.3827 6.44866 68.3827 4.15431C68.3827 1.85994 66.5136 0 64.208 0C61.9023 0 60.0332 1.85994 60.0332 4.15431C60.0332 6.44866 61.9023 8.3086 64.208 8.3086Z" fill="white"/>
</g>
<defs>
<clipPath id="clip0_6782_6965">
<rect width="72" height="28" fill="white"/>
</clipPath>
</defs>
</svg>
